<?xml version="1.0" standalone="no"?>
<!DOCTYPE svg PUBLIC "-//W3C//DTD SVG 20010904//EN"
 "http://www.w3.org/TR/2001/REC-SVG-20010904/DTD/svg10.dtd">
<svg version="1.0" xmlns="http://www.w3.org/2000/svg"
 width="144.000000pt" height="144.000000pt" viewBox="0 0 144.000000 144.000000"
 preserveAspectRatio="xMidYMid meet">
<metadata>
Created by potrace 1.11, written by Peter Selinger 2001-2013
</metadata>
<g transform="translate(0.000000,144.000000) scale(0.100000,-0.100000)"
fill="#000000" stroke="none">
<path d="M435 1302 c4 -15 9 -36 12 -47 2 -11 5 -24 7 -30 1 -5 8 -36 16 -67
7 -32 16 -58 19 -58 6 0 111 192 111 202 0 3 -6 5 -12 5 -16 0 -114 13 -141
18 -16 4 -18 0 -12 -23z"/>
<path d="M232 1172 c-73 -73 -132 -133 -132 -135 0 -2 75 -3 166 -3 163 -1
166 0 161 20 -3 12 -8 32 -11 45 -3 13 -10 38 -15 55 -6 17 -13 42 -15 56 -3
14 -9 41 -14 60 l-8 34 -132 -132z"/>
<path d="M631 1208 c-8 -13 -33 -57 -54 -98 -22 -41 -46 -83 -52 -93 -10 -15
-8 -36 12 -115 34 -138 29 -131 66 -91 58 64 163 183 211 239 26 30 60 69 76
85 36 39 41 57 15 60 -11 2 -39 5 -63 9 -29 4 -52 1 -73 -9 -28 -15 -32 -14
-73 10 -23 14 -45 25 -47 25 -2 0 -11 -10 -18 -22z"/>
<path d="M989 1110 c0 -8 -2 -26 -5 -40 -2 -14 -8 -53 -14 -88 -16 -97 -22
-142 -18 -142 4 0 149 39 166 45 9 3 7 14 -8 40 -112 199 -119 211 -121 185z"/>
<path d="M884 1027 c-16 -18 -60 -68 -99 -112 -38 -44 -82 -93 -97 -110 -24
-26 -35 -45 -25 -45 1 0 30 9 65 19 34 11 62 17 62 14 0 -3 7 0 15 7 8 7 15
10 15 7 0 -3 13 -1 29 4 30 11 29 6 57 194 3 22 8 43 11 48 10 17 -6 5 -33
-26z"/>
<path d="M86 962 c-3 -2 15 -35 40 -73 24 -38 44 -74 44 -80 0 -9 63 32 85 56
6 6 36 30 68 54 31 24 57 44 57 45 0 4 -290 2 -294 -2z"/>
<path d="M355 858 c-55 -44 -102 -84 -103 -89 -2 -5 5 -9 15 -10 20 -1 30 -2
105 -19 97 -21 138 -23 138 -8 0 7 -9 47 -21 88 -11 41 -22 83 -25 94 -2 10
-5 20 -6 21 -2 1 -48 -33 -103 -77z"/>
<path d="M1192 830 c-65 -18 -70 -19 -74 -21 -2 0 -10 -2 -18 -4 -8 -1 -35 -8
-60 -15 -45 -12 -68 -18 -82 -19 -4 -1 -3 -13 3 -28 7 -16 15 -37 20 -48 7
-18 19 -55 25 -80 6 -22 50 -134 55 -139 2 -3 21 25 40 62 110 206 160 304
157 307 -1 1 -31 -5 -66 -15z"/>
<path d="M877 754 c-4 -5 -13 -9 -20 -10 -7 -2 -39 -10 -72 -20 -33 -9 -68
-18 -78 -20 -59 -11 -60 -15 -12 -45 25 -16 47 -29 50 -29 2 0 52 -29 111 -65
60 -35 110 -63 112 -60 2 2 -13 50 -33 107 -20 57 -40 113 -44 126 -3 13 -10
20 -14 16z"/>
<path d="M683 558 c12 -19 54 -87 92 -151 39 -64 74 -117 78 -117 5 0 36 27
69 61 l61 61 -24 13 c-13 8 -33 19 -44 24 -11 6 -38 22 -60 36 -22 14 -51 30
-65 37 -14 7 -38 22 -55 34 -16 12 -40 25 -53 29 l-22 6 23 -33z"/>
<path d="M593 555 c11 -37 58 -220 63 -245 3 -14 8 -34 11 -45 8 -24 10 -30
22 -78 5 -21 11 -41 14 -43 3 -3 25 16 51 42 l45 47 -18 31 c-11 17 -55 91
-100 165 -85 141 -97 159 -88 126z"/>
<path d="M879 211 c-62 -60 -97 -101 -90 -105 6 -4 11 -3 11 1 0 5 8 9 18 10
25 2 74 12 77 15 1 2 17 35 35 73 19 39 41 78 49 88 37 45 -8 8 -100 -82z"/>
</g>
</svg>
